<svg id="Capa_1" enable-background="new 0 0 511 511" height="512" viewBox="0 0 511 511" width="512" xmlns="http://www.w3.org/2000/svg"><g><path d="m160.5 34h300v15h-300z"/><path d="m15 83h93.5v-15h-93.5v-53h222.357v-15h-237.357v337.643h15z"/><path d="m15 437.5v-84.857h-15v84.857c0 20.678 16.822 37.5 37.5 37.5h328v-15h-328c-12.407 0-22.5-10.094-22.5-22.5z"/><path d="m252.357 0v15h243.643v53h-372.5v15h372.5v133.357h15v-216.357z"/><path d="m496 231.357h15v92.143h-15z"/><path d="m473.5 336h-50c-20.678 0-37.5 16.822-37.5 37.5v100c0 20.678 16.822 37.5 37.5 37.5h50c20.678 0 37.5-16.822 37.5-37.5v-16.428h-15v16.428c0 12.406-10.094 22.5-22.5 22.5h-50c-12.406 0-22.5-10.094-22.5-22.5v-62.5h95v31.072h15v-68.572c0-20.678-16.822-37.5-37.5-37.5zm-32.5 60h-40v-22.5c0-12.406 10.094-22.5 22.5-22.5h17.5zm55 0h-40v-45h17.5c12.406 0 22.5 10.094 22.5 22.5z"/><path d="m408 244.641v-102.141c0-9.098 7.402-16.5 16.5-16.5s16.5 7.402 16.5 16.5v146h15v-146c0-17.369-14.131-31.5-31.5-31.5s-31.5 14.131-31.5 31.5v102.141c0 6.893-5.607 12.5-12.5 12.5h-47.684c-3.848-77.927-68.452-140.141-147.316-140.141-81.332 0-147.5 66.168-147.5 147.5s66.168 147.5 147.5 147.5c78.77 0 143.315-62.064 147.304-139.859h47.696c15.163 0 27.5-12.337 27.5-27.5zm-263.292-106.207c-15.019 17.382-26.524 44.255-32.39 76.566h-49.718c14.618-36.164 44.752-64.45 82.108-76.566zm-91.708 126.066c0-11.931 1.595-23.495 4.565-34.5h52.486c-1.34 11.035-2.051 22.58-2.051 34.5s.711 23.465 2.051 34.5h-52.486c-2.97-11.005-4.565-22.569-4.565-34.5zm9.6 49.5h49.718c5.866 32.311 17.371 59.184 32.39 76.566-37.356-12.116-67.49-40.402-82.108-76.566zm115.4 81.996c-22.517-6.009-41.762-38.603-50.294-81.996h50.294zm0-96.996h-52.752c-1.461-11.047-2.248-22.619-2.248-34.5s.788-23.453 2.248-34.5h52.752zm0-84h-50.294c8.532-43.394 27.777-75.987 50.294-81.996zm130.4 0h-49.718c-5.866-32.311-17.371-59.184-32.39-76.566 37.356 12.116 67.49 40.402 82.108 76.566zm-115.4-81.996c22.517 6.009 41.762 38.603 50.294 81.996h-50.294zm0 96.996h52.752c1.461 11.047 2.248 22.619 2.248 34.5s-.788 23.453-2.248 34.5h-52.752zm0 165.996v-81.996h50.294c-8.532 43.394-27.777 75.987-50.294 81.996zm33.292-5.43c15.019-17.382 26.524-44.255 32.39-76.566h49.718c-14.618 36.164-44.752 64.45-82.108 76.566zm87.143-91.566h-52.486c1.34-11.035 2.051-22.58 2.051-34.5s-.711-23.465-2.051-34.5h52.486c2.971 11.005 4.565 22.569 4.565 34.5s-1.595 23.495-4.565 34.5z"/><path d="m73.5 34h15v15h-15z"/><path d="m43.5 34h15v15h-15z"/><path d="m103.5 34h15v15h-15z"/><path d="m208 430h15v15h-15z"/><path d="m178 430h15v15h-15z"/><path d="m148 430h15v15h-15z"/><path d="m441 305.5h15v15h-15z"/></g></svg>